<?xml version="1.0" standalone="no"?>
<!DOCTYPE svg PUBLIC "-//W3C//DTD SVG 20010904//EN"
 "http://www.w3.org/TR/2001/REC-SVG-20010904/DTD/svg10.dtd">
<svg version="1.0" xmlns="http://www.w3.org/2000/svg"
 width="512.000000pt" height="512.000000pt" viewBox="0 0 512.000000 512.000000"
 preserveAspectRatio="xMidYMid meet">
<metadata>
Created by potrace 1.14, written by Peter Selinger 2001-2017
</metadata>
<g transform="translate(0.000000,512.000000) scale(0.100000,-0.100000)"
fill="#000000" stroke="none">
<path d="M2315 5109 c-787 -76 -1502 -519 -1927 -1196 -458 -729 -513 -1668
-143 -2441 76 -159 175 -326 185 -315 4 4 211 526 460 1158 248 633 460 1169
470 1193 l19 42 370 0 c343 0 371 -1 379 -17 5 -10 105 -334 223 -720 117
-387 216 -697 220 -690 4 6 89 280 189 607 100 327 197 646 216 708 l35 112
365 0 365 0 19 -42 c10 -24 222 -560 470 -1193 249 -632 456 -1154 460 -1158
18 -20 205 336 274 524 51 138 103 343 128 504 29 186 31 539 5 720 -64 435
-232 845 -486 1185 -490 654 -1260 1037 -2071 1029 -74 -1 -175 -6 -225 -10z"/>
<path d="M3109 2248 l-296 -673 -255 -3 -255 -2 -288 657 c-158 362 -290 661
-294 666 -4 4 -217 -482 -474 -1080 l-466 -1088 37 -38 c20 -22 82 -75 137
-120 343 -277 739 -454 1191 -533 144 -26 182 -28 404 -28 338 -1 552 33 846
135 321 110 657 309 872 516 l71 68 -454 1070 c-250 589 -460 1082 -467 1098
-12 26 -26 -2 -309 -645z"/>
</g>
</svg>
